<?xml version="1.0" encoding="UTF-8"?>
<!DOCTYPE svg PUBLIC "-//W3C//DTD SVG 1.1//EN" "http://www.w3.org/Graphics/SVG/1.1/DTD/svg11.dtd">
<svg xmlns="http://www.w3.org/2000/svg" version="1.1" width="1024px" height="1024px" style="shape-rendering:geometricPrecision; text-rendering:geometricPrecision; image-rendering:optimizeQuality; fill-rule:evenodd; clip-rule:evenodd" xmlns:xlink="http://www.w3.org/1999/xlink">
<g><path style="opacity:0.999" fill="#030303" d="M 512.5,2.5 C 517.26,12.3554 521.76,22.3554 526,32.5C 552.356,84.9901 578.856,137.323 605.5,189.5C 605.427,191.027 606.094,192.027 607.5,192.5C 612.008,200.182 616.008,208.182 619.5,216.5C 619.427,218.027 620.094,219.027 621.5,219.5C 632.564,239.346 641.897,260.013 649.5,281.5C 649.402,283.553 650.069,285.22 651.5,286.5C 666.788,328.329 667.288,370.329 653,412.5C 652.102,415.069 650.935,417.402 649.5,419.5C 648.069,420.78 647.402,422.447 647.5,424.5C 643.751,432.332 639.751,439.999 635.5,447.5C 634.094,447.973 633.427,448.973 633.5,450.5C 621.559,473.383 609.892,496.383 598.5,519.5C 596.707,521.426 595.707,523.759 595.5,526.5C 592.736,533.684 589.736,540.684 586.5,547.5C 585.069,548.78 584.402,550.447 584.5,552.5C 565.733,601.236 553.399,651.569 547.5,703.5C 546.532,705.607 546.198,707.941 546.5,710.5C 549.5,710.5 552.5,710.5 555.5,710.5C 555.5,707.833 555.5,705.167 555.5,702.5C 557.209,684.914 560.209,667.581 564.5,650.5C 566.163,648.562 566.829,646.228 566.5,643.5C 569.658,629.694 573.991,616.361 579.5,603.5C 580.931,602.22 581.598,600.553 581.5,598.5C 586.938,583.624 593.938,569.624 602.5,556.5C 603.906,556.027 604.573,555.027 604.5,553.5C 604.328,552.508 604.662,551.842 605.5,551.5C 606.906,551.027 607.573,550.027 607.5,548.5C 608.34,546.147 609.674,544.147 611.5,542.5C 612.906,542.027 613.573,541.027 613.5,539.5C 614.906,539.027 615.573,538.027 615.5,536.5C 616.906,536.027 617.573,535.027 617.5,533.5C 620.435,528.235 624.101,523.568 628.5,519.5C 630.262,518.738 631.262,517.404 631.5,515.5C 639.133,506.2 647.466,497.533 656.5,489.5C 658.749,488.92 660.415,487.587 661.5,485.5C 662.5,483.833 663.833,482.5 665.5,481.5C 667.404,481.262 668.738,480.262 669.5,478.5C 669.5,477.833 669.833,477.5 670.5,477.5C 672.404,477.262 673.738,476.262 674.5,474.5C 676.77,472.025 679.437,470.025 682.5,468.5C 684.027,468.573 685.027,467.906 685.5,466.5C 687.027,466.573 688.027,465.906 688.5,464.5C 690.147,462.674 692.147,461.34 694.5,460.5C 696.027,460.573 697.027,459.906 697.5,458.5C 710.636,449.932 724.636,442.932 739.5,437.5C 741.553,437.598 743.22,436.931 744.5,435.5C 788.946,418.724 834.613,414.891 881.5,424C 892.335,426.775 902.668,430.608 912.5,435.5C 915.008,437.924 918.008,439.59 921.5,440.5C 927.686,443.422 933.352,447.089 938.5,451.5C 938.973,452.906 939.973,453.573 941.5,453.5C 949.422,458.753 956.422,465.086 962.5,472.5C 963.08,474.749 964.413,476.415 966.5,477.5C 967.5,477.833 968.167,478.5 968.5,479.5C 968.738,481.404 969.738,482.738 971.5,483.5C 975.812,487.454 979.145,492.12 981.5,497.5C 981.427,499.027 982.094,500.027 983.5,500.5C 983.427,502.027 984.094,503.027 985.5,503.5C 1007.99,540.146 1014.16,579.479 1004,621.5C 991.637,661.025 967.137,690.358 930.5,709.5C 928.973,709.427 927.973,710.094 927.5,711.5C 920.267,715.949 912.601,719.615 904.5,722.5C 902.447,722.402 900.78,723.069 899.5,724.5C 898.791,725.404 897.791,725.737 896.5,725.5C 894.447,725.402 892.78,726.069 891.5,727.5C 883.225,731.145 874.558,733.812 865.5,735.5C 864.209,735.737 863.209,735.404 862.5,734.5C 876.424,701.413 875.424,668.746 859.5,636.5C 859.446,634.368 858.446,633.035 856.5,632.5C 854.5,629.5 852.5,626.5 850.5,623.5C 850.573,621.973 849.906,620.973 848.5,620.5C 844.5,617.167 840.833,613.5 837.5,609.5C 836.738,607.738 835.404,606.738 833.5,606.5C 828.167,603.5 822.833,600.5 817.5,597.5C 816.713,595.896 815.38,595.229 813.5,595.5C 787.379,587.25 761.379,587.75 735.5,597C 726.267,600.02 717.267,603.52 708.5,607.5C 706.326,607.75 704.659,608.75 703.5,610.5C 682.217,622.105 663.217,636.772 646.5,654.5C 645.094,654.973 644.427,655.973 644.5,657.5C 637.08,666.682 630.414,676.349 624.5,686.5C 622.461,687.911 621.461,689.911 621.5,692.5C 619.071,697.952 616.738,703.452 614.5,709C 626.536,709.162 638.536,709.829 650.5,711C 659.254,712.871 666.587,717.038 672.5,723.5C 672.427,725.027 673.094,726.027 674.5,726.5C 674.427,728.027 675.094,729.027 676.5,729.5C 681.183,745.139 675.849,756.139 660.5,762.5C 658.447,762.402 656.78,763.069 655.5,764.5C 652.742,765.761 649.742,766.594 646.5,767C 634.153,767.167 621.82,767.667 609.5,768.5C 611.802,778.747 615.469,788.414 620.5,797.5C 620.427,799.027 621.094,800.027 622.5,800.5C 622.427,802.027 623.094,803.027 624.5,803.5C 625.5,803.833 626.167,804.5 626.5,805.5C 627.167,808.167 628.833,809.833 631.5,810.5C 648.976,823.56 668.309,827.06 689.5,821C 694.805,819.014 699.805,816.514 704.5,813.5C 706.027,813.573 707.027,812.906 707.5,811.5C 708.5,809.833 709.833,808.5 711.5,807.5C 712.906,807.027 713.573,806.027 713.5,804.5C 713.5,803.833 713.833,803.5 714.5,803.5C 715.906,803.027 716.573,802.027 716.5,800.5C 723.421,781.067 722.921,761.733 715,742.5C 711.82,736.14 708.653,729.807 705.5,723.5C 706.1,722.1 707.1,721.1 708.5,720.5C 731.652,717.096 753.319,721.096 773.5,732.5C 773.973,733.906 774.973,734.573 776.5,734.5C 780.668,736.423 784.335,739.09 787.5,742.5C 788.419,745.089 790.086,747.089 792.5,748.5C 793.833,749.167 794.833,750.167 795.5,751.5C 795.427,753.027 796.094,754.027 797.5,754.5C 798.167,754.5 798.5,754.833 798.5,755.5C 798.427,757.027 799.094,758.027 800.5,758.5C 816.611,784.297 820.445,811.964 812,841.5C 801.437,870.23 781.937,890.23 753.5,901.5C 751.447,901.402 749.78,902.069 748.5,903.5C 709.321,918.542 670.321,917.709 631.5,901C 627.77,898.807 624.103,896.64 620.5,894.5C 620.027,893.094 619.027,892.427 617.5,892.5C 617.027,891.094 616.027,890.427 614.5,890.5C 614.027,889.094 613.027,888.427 611.5,888.5C 611.027,887.094 610.027,886.427 608.5,886.5C 607.5,886.167 606.833,885.5 606.5,884.5C 606.027,883.094 605.027,882.427 603.5,882.5C 601.5,881.167 599.833,879.5 598.5,877.5C 597.415,875.413 595.749,874.08 593.5,873.5C 589.071,869.407 585.404,864.741 582.5,859.5C 582.573,857.973 581.906,856.973 580.5,856.5C 574.875,848.919 570.541,840.585 567.5,831.5C 567.598,829.447 566.931,827.78 565.5,826.5C 564.596,825.791 564.263,824.791 564.5,823.5C 564.59,820.848 563.924,818.515 562.5,816.5C 557.694,802.344 555.028,787.678 554.5,772.5C 554.5,770.5 554.5,768.5 554.5,766.5C 550.958,766.187 547.625,766.521 544.5,767.5C 544.984,790.291 546.817,812.958 550,835.5C 553.704,839.036 557.204,842.702 560.5,846.5C 560.427,848.027 561.094,849.027 562.5,849.5C 567.647,855.775 571.814,862.775 575,870.5C 580.212,885.971 585.712,901.304 591.5,916.5C 591.427,918.027 592.094,919.027 593.5,919.5C 594.338,919.842 594.672,920.508 594.5,921.5C 594.427,923.027 595.094,924.027 596.5,924.5C 597.167,924.5 597.5,924.833 597.5,925.5C 597.427,927.027 598.094,928.027 599.5,928.5C 603.38,932.545 607.713,936.045 612.5,939C 614.007,939.837 614.507,941.004 614,942.5C 598.121,942.612 582.621,940.112 567.5,935C 565.934,934.392 564.6,933.558 563.5,932.5C 563.027,931.094 562.027,930.427 560.5,930.5C 559.167,929.833 558.167,928.833 557.5,927.5C 556.791,926.596 555.791,926.263 554.5,926.5C 554.5,929.167 554.5,931.833 554.5,934.5C 553.53,941.419 551.196,947.752 547.5,953.5C 545.326,956.515 543.659,959.849 542.5,963.5C 539.337,970.496 535.671,977.162 531.5,983.5C 530.094,983.973 529.427,984.973 529.5,986.5C 523.924,996.65 518.591,1006.98 513.5,1017.5C 512.833,1017.83 512.167,1018.17 511.5,1018.5C 504.66,1005.48 497.327,992.812 489.5,980.5C 489.446,978.368 488.446,977.035 486.5,976.5C 475.838,961.833 469.004,945.5 466,927.5C 459.442,933.805 451.609,937.638 442.5,939C 431.349,940.798 420.183,941.965 409,942.5C 407.207,940.74 407.707,939.74 410.5,939.5C 412.404,939.262 413.738,938.262 414.5,936.5C 417.167,935.833 418.833,934.167 419.5,931.5C 421.5,931.5 422.5,930.5 422.5,928.5C 423.5,926.833 424.833,925.5 426.5,924.5C 427.906,924.027 428.573,923.027 428.5,921.5C 431.321,916.527 434.155,911.527 437,906.5C 443.275,889.674 449.942,873.007 457,856.5C 460.625,850.708 465.125,845.708 470.5,841.5C 472.027,841.573 473.027,840.906 473.5,839.5C 475.176,838.817 475.843,837.483 475.5,835.5C 477.497,812.874 478.83,790.208 479.5,767.5C 475.833,767.5 472.167,767.5 468.5,767.5C 467.586,796.49 460.419,823.823 447,849.5C 433.268,873.402 413.768,890.736 388.5,901.5C 386.447,901.402 384.78,902.069 383.5,903.5C 350.137,916.437 316.47,917.437 282.5,906.5C 280.898,904.926 278.898,904.259 276.5,904.5C 274.597,904.204 272.93,903.537 271.5,902.5C 270.22,901.069 268.553,900.402 266.5,900.5C 261.68,898.926 257.347,896.593 253.5,893.5C 253.027,892.094 252.027,891.427 250.5,891.5C 248.147,890.66 246.147,889.326 244.5,887.5C 244.027,886.094 243.027,885.427 241.5,885.5C 224.025,871.577 212.858,853.577 208,831.5C 203.425,806.949 207.258,783.949 219.5,762.5C 220.906,762.027 221.573,761.027 221.5,759.5C 221.427,757.973 222.094,756.973 223.5,756.5C 224.906,756.027 225.573,755.027 225.5,753.5C 229.833,747.167 235.167,741.833 241.5,737.5C 243.027,737.573 244.027,736.906 244.5,735.5C 246.027,735.573 247.027,734.906 247.5,733.5C 247.842,732.662 248.508,732.328 249.5,732.5C 251.027,732.573 252.027,731.906 252.5,730.5C 271.982,720.644 292.648,717.31 314.5,720.5C 315.5,721.167 316.5,721.833 317.5,722.5C 309.13,736.441 303.63,751.441 301,767.5C 299.033,781.849 302.199,794.849 310.5,806.5C 311.167,809.167 312.833,810.833 315.5,811.5C 331.065,822.815 348.398,826.481 367.5,822.5C 371.081,822.862 374.081,821.862 376.5,819.5C 380.26,817.784 383.927,815.784 387.5,813.5C 389.404,813.262 390.738,812.262 391.5,810.5C 392.833,808.5 394.5,806.833 396.5,805.5C 397.906,805.027 398.573,804.027 398.5,802.5C 404.805,792.556 409.472,781.889 412.5,770.5C 413.434,769.432 413.768,768.099 413.5,766.5C 401.833,766.5 390.167,766.5 378.5,766.5C 369.954,766.213 362.621,763.213 356.5,757.5C 356.027,756.094 355.027,755.427 353.5,755.5C 346.332,748.683 344.332,740.683 347.5,731.5C 348.674,730.486 349.34,729.153 349.5,727.5C 350.902,724.035 353.236,721.368 356.5,719.5C 358.027,719.573 359.027,718.906 359.5,717.5C 361.027,717.573 362.027,716.906 362.5,715.5C 367.972,712.296 373.972,710.629 380.5,710.5C 389.857,710.832 399.19,710.498 408.5,709.5C 408.376,708.893 408.043,708.56 407.5,708.5C 405.226,703.617 403.226,698.617 401.5,693.5C 401.539,690.911 400.539,688.911 398.5,687.5C 389.167,670.486 377.5,655.153 363.5,641.5C 363.027,640.094 362.027,639.427 360.5,639.5C 358.5,638.167 356.833,636.5 355.5,634.5C 354.738,632.738 353.404,631.738 351.5,631.5C 348.19,629.518 345.19,627.185 342.5,624.5C 342.027,623.094 341.027,622.427 339.5,622.5C 339.027,621.094 338.027,620.427 336.5,620.5C 336.027,619.094 335.027,618.427 333.5,618.5C 311.625,604.903 287.958,595.737 262.5,591C 245.218,588.339 228.218,589.506 211.5,594.5C 209.447,594.402 207.78,595.069 206.5,596.5C 204.62,596.229 203.287,596.896 202.5,598.5C 172.148,615.473 154.982,641.473 151,676.5C 148.758,696.309 151.591,715.309 159.5,733.5C 159.179,735.048 158.179,735.715 156.5,735.5C 145.83,732.943 135.497,729.609 125.5,725.5C 124.22,724.069 122.553,723.402 120.5,723.5C 119.22,722.069 117.553,721.402 115.5,721.5C 110.344,719.421 105.344,717.088 100.5,714.5C 100.027,713.094 99.0269,712.427 97.5,712.5C 95.1815,712.008 93.1815,711.008 91.5,709.5C 91.0269,708.094 90.0269,707.427 88.5,707.5C 84.1477,705.327 80.1477,702.66 76.5,699.5C 76.0269,698.094 75.0269,697.427 73.5,697.5C 72.7377,695.738 71.4044,694.738 69.5,694.5C 68.8333,694.5 68.5,694.167 68.5,693.5C 68.0269,692.094 67.0269,691.427 65.5,691.5C 64.1667,690.833 63.1667,689.833 62.5,688.5C 60.7607,685.757 58.4274,683.757 55.5,682.5C 18.0976,644.573 5.76422,599.573 18.5,547.5C 20.0739,545.898 20.7406,543.898 20.5,541.5C 24.1574,526.193 30.4907,512.193 39.5,499.5C 40.9063,499.027 41.573,498.027 41.5,496.5C 41.427,494.973 42.0937,493.973 43.5,493.5C 44.9063,493.027 45.573,492.027 45.5,490.5C 47.697,486.762 50.3637,483.429 53.5,480.5C 55.2624,479.738 56.2624,478.404 56.5,476.5C 61.8333,470.5 67.5,464.833 73.5,459.5C 75.0269,459.573 76.0269,458.906 76.5,457.5C 76.8333,456.5 77.5,455.833 78.5,455.5C 80.0269,455.573 81.0269,454.906 81.5,453.5C 81.5,452.833 81.8333,452.5 82.5,452.5C 84.0269,452.573 85.0269,451.906 85.5,450.5C 89.1477,447.34 93.1477,444.673 97.5,442.5C 99.0269,442.573 100.027,441.906 100.5,440.5C 127.675,425.041 157.008,418.041 188.5,419.5C 220.437,419.023 251.104,424.689 280.5,436.5C 281.78,437.931 283.447,438.598 285.5,438.5C 293.903,441.407 301.903,445.073 309.5,449.5C 310.659,451.25 312.326,452.25 314.5,452.5C 327.54,459.015 339.54,467.015 350.5,476.5C 350.973,477.906 351.973,478.573 353.5,478.5C 357.792,481.457 361.792,484.79 365.5,488.5C 365.5,490.5 366.5,491.5 368.5,491.5C 372.833,495.167 376.833,499.167 380.5,503.5C 380.738,505.404 381.738,506.738 383.5,507.5C 385.5,508.833 387.167,510.5 388.5,512.5C 388.738,514.404 389.738,515.738 391.5,516.5C 392.5,516.833 393.167,517.5 393.5,518.5C 393.427,520.027 394.094,521.027 395.5,521.5C 396.5,521.833 397.167,522.5 397.5,523.5C 397.427,525.027 398.094,526.027 399.5,526.5C 401.543,527.579 402.876,529.246 403.5,531.5C 403.427,533.027 404.094,534.027 405.5,534.5C 407.522,536.531 409.189,538.865 410.5,541.5C 410.427,543.027 411.094,544.027 412.5,544.5C 412.427,546.027 413.094,547.027 414.5,547.5C 415.338,547.842 415.672,548.508 415.5,549.5C 415.427,551.027 416.094,552.027 417.5,552.5C 417.427,554.027 418.094,555.027 419.5,555.5C 428.062,568.624 435.062,582.624 440.5,597.5C 440.402,599.553 441.069,601.22 442.5,602.5C 456.418,636.402 464.751,671.735 467.5,708.5C 470.337,710.402 473.671,711.069 477.5,710.5C 477.737,709.209 477.404,708.209 476.5,707.5C 471.629,666.016 462.962,625.349 450.5,585.5C 450.598,583.447 449.931,581.78 448.5,580.5C 444.438,570.647 440.771,560.647 437.5,550.5C 437.771,548.62 437.104,547.287 435.5,546.5C 417.675,505.85 398.008,466.183 376.5,427.5C 376.598,425.447 375.931,423.78 374.5,422.5C 366.424,406.544 361.591,389.544 360,371.5C 357.318,334.244 363.651,298.577 379,264.5C 390.003,241.16 401.503,218.16 413.5,195.5C 414.906,195.027 415.573,194.027 415.5,192.5C 419.325,183.516 423.659,174.849 428.5,166.5C 429.906,166.027 430.573,165.027 430.5,163.5C 448.733,126.7 467.233,90.0332 486,53.5C 493.937,36.5128 501.77,19.5128 509.5,2.5C 510.5,1.16667 511.5,1.16667 512.5,2.5 Z"/></g>
<g><path style="opacity:0.361" fill="#a8a8a8" d="M 510.5,-0.5 C 510.833,-0.5 511.167,-0.5 511.5,-0.5C 512.11,0.391047 512.443,1.39105 512.5,2.5C 511.5,1.16667 510.5,1.16667 509.5,2.5C 509.557,1.39105 509.89,0.391047 510.5,-0.5 Z"/></g>
<g><path style="opacity:0.306" fill="#a6a6a6" d="M 430.5,163.5 C 430.573,165.027 429.906,166.027 428.5,166.5C 428.427,164.973 429.094,163.973 430.5,163.5 Z"/></g>
<g><path style="opacity:0.322" fill="#a3a3a3" d="M 605.5,189.5 C 606.906,189.973 607.573,190.973 607.5,192.5C 606.094,192.027 605.427,191.027 605.5,189.5 Z"/></g>
<g><path style="opacity:0.361" fill="#a2a2a2" d="M 415.5,192.5 C 415.573,194.027 414.906,195.027 413.5,195.5C 413.427,193.973 414.094,192.973 415.5,192.5 Z"/></g>
<g><path style="opacity:0.337" fill="#a5a5a5" d="M 619.5,216.5 C 620.906,216.973 621.573,217.973 621.5,219.5C 620.094,219.027 619.427,218.027 619.5,216.5 Z"/></g>
<g><path style="opacity:0.243" fill="#9f9f9f" d="M 649.5,281.5 C 650.931,282.78 651.598,284.447 651.5,286.5C 650.069,285.22 649.402,283.553 649.5,281.5 Z"/></g>
<g><path style="opacity:0.431" fill="#969696" d="M 649.5,419.5 C 649.598,421.553 648.931,423.22 647.5,424.5C 647.402,422.447 648.069,420.78 649.5,419.5 Z"/></g>
<g><path style="opacity:0.345" fill="#a0a0a0" d="M 374.5,422.5 C 375.931,423.78 376.598,425.447 376.5,427.5C 375.069,426.22 374.402,424.553 374.5,422.5 Z"/></g>
<g><path style="opacity:0.439" fill="#979797" d="M 744.5,435.5 C 743.22,436.931 741.553,437.598 739.5,437.5C 740.78,436.069 742.447,435.402 744.5,435.5 Z"/></g>
<g><path style="opacity:0.455" fill="#999999" d="M 912.5,435.5 C 915.992,436.41 918.992,438.076 921.5,440.5C 918.008,439.59 915.008,437.924 912.5,435.5 Z"/></g>
<g><path style="opacity:0.478" fill="#969696" d="M 280.5,436.5 C 282.553,436.402 284.22,437.069 285.5,438.5C 283.447,438.598 281.78,437.931 280.5,436.5 Z"/></g>
<g><path style="opacity:0.647" fill="#909090" d="M 100.5,440.5 C 100.027,441.906 99.0269,442.573 97.5,442.5C 97.9731,441.094 98.9731,440.427 100.5,440.5 Z"/></g>
<g><path style="opacity:0.322" fill="#a3a3a3" d="M 635.5,447.5 C 635.573,449.027 634.906,450.027 633.5,450.5C 633.427,448.973 634.094,447.973 635.5,447.5 Z"/></g>
<g><path style="opacity:0.392" fill="#9d9d9d" d="M 309.5,449.5 C 311.674,449.75 313.341,450.75 314.5,452.5C 312.326,452.25 310.659,451.25 309.5,449.5 Z"/></g>
<g><path style="opacity:0.725" fill="#727272" d="M 85.5,450.5 C 85.0269,451.906 84.0269,452.573 82.5,452.5C 82.9731,451.094 83.9731,450.427 85.5,450.5 Z"/></g>
<g><path style="opacity:0.031" fill="#adadad" d="M 938.5,451.5 C 940.027,451.427 941.027,452.094 941.5,453.5C 939.973,453.573 938.973,452.906 938.5,451.5 Z"/></g>
<g><path style="opacity:0.757" fill="#727272" d="M 81.5,453.5 C 81.0269,454.906 80.0269,455.573 78.5,455.5C 78.9731,454.094 79.9731,453.427 81.5,453.5 Z"/></g>
<g><path style="opacity:0.757" fill="#727272" d="M 76.5,457.5 C 76.0269,458.906 75.0269,459.573 73.5,459.5C 73.9731,458.094 74.9731,457.427 76.5,457.5 Z"/></g>
<g><path style="opacity:0.757" fill="#707070" d="M 697.5,458.5 C 697.027,459.906 696.027,460.573 694.5,460.5C 694.973,459.094 695.973,458.427 697.5,458.5 Z"/></g>
<g><path style="opacity:0.757" fill="#6d6d6d" d="M 688.5,464.5 C 688.027,465.906 687.027,466.573 685.5,466.5C 685.973,465.094 686.973,464.427 688.5,464.5 Z"/></g>
<g><path style="opacity:0.773" fill="#717171" d="M 685.5,466.5 C 685.027,467.906 684.027,468.573 682.5,468.5C 682.973,467.094 683.973,466.427 685.5,466.5 Z"/></g>
<g><path style="opacity:0.773" fill="#868686" d="M 962.5,472.5 C 964.587,473.585 965.92,475.251 966.5,477.5C 964.413,476.415 963.08,474.749 962.5,472.5 Z"/></g>
<g><path style="opacity:0.671" fill="#7f7f7f" d="M 674.5,474.5 C 673.738,476.262 672.404,477.262 670.5,477.5C 671.262,475.738 672.596,474.738 674.5,474.5 Z"/></g>
<g><path style="opacity:0.016" fill="#b2b2b2" d="M 350.5,476.5 C 352.027,476.427 353.027,477.094 353.5,478.5C 351.973,478.573 350.973,477.906 350.5,476.5 Z"/></g>
<g><path style="opacity:0.757" fill="#737373" d="M 56.5,476.5 C 56.2624,478.404 55.2624,479.738 53.5,480.5C 53.7376,478.596 54.7376,477.262 56.5,476.5 Z"/></g>
<g><path style="opacity:0.655" fill="#828282" d="M 669.5,478.5 C 668.738,480.262 667.404,481.262 665.5,481.5C 666.262,479.738 667.596,478.738 669.5,478.5 Z"/></g>
<g><path style="opacity:0.788" fill="#777777" d="M 968.5,479.5 C 970.262,480.262 971.262,481.596 971.5,483.5C 969.738,482.738 968.738,481.404 968.5,479.5 Z"/></g>
<g><path style="opacity:0.78" fill="#5c5c5c" d="M 661.5,485.5 C 660.415,487.587 658.749,488.92 656.5,489.5C 657.585,487.413 659.251,486.08 661.5,485.5 Z"/></g>
<g><path style="opacity:0.655" fill="#969696" d="M 365.5,488.5 C 366.833,489.167 367.833,490.167 368.5,491.5C 366.5,491.5 365.5,490.5 365.5,488.5 Z"/></g>
<g><path style="opacity:0.537" fill="#8c8c8c" d="M 45.5,490.5 C 45.573,492.027 44.9063,493.027 43.5,493.5C 43.427,491.973 44.0937,490.973 45.5,490.5 Z"/></g>
<g><path style="opacity:0.576" fill="#818181" d="M 41.5,496.5 C 41.573,498.027 40.9063,499.027 39.5,499.5C 39.427,497.973 40.0937,496.973 41.5,496.5 Z"/></g>
<g><path style="opacity:0.639" fill="#737373" d="M 981.5,497.5 C 982.906,497.973 983.573,498.973 983.5,500.5C 982.094,500.027 981.427,499.027 981.5,497.5 Z"/></g>
<g><path style="opacity:0.529" fill="#868686" d="M 983.5,500.5 C 984.906,500.973 985.573,501.973 985.5,503.5C 984.094,503.027 983.427,502.027 983.5,500.5 Z"/></g>
<g><path style="opacity:0.765" fill="#7c7c7c" d="M 380.5,503.5 C 382.262,504.262 383.262,505.596 383.5,507.5C 381.738,506.738 380.738,505.404 380.5,503.5 Z"/></g>
<g><path style="opacity:0.749" fill="#848484" d="M 388.5,512.5 C 390.262,513.262 391.262,514.596 391.5,516.5C 389.738,515.738 388.738,514.404 388.5,512.5 Z"/></g>
<g><path style="opacity:0.765" fill="#747474" d="M 631.5,515.5 C 631.262,517.404 630.262,518.738 628.5,519.5C 628.738,517.596 629.738,516.262 631.5,515.5 Z"/></g>
<g><path style="opacity:0.796" fill="#6d6d6d" d="M 393.5,518.5 C 394.906,518.973 395.573,519.973 395.5,521.5C 394.094,521.027 393.427,520.027 393.5,518.5 Z"/></g>
<g><path style="opacity:0.416" fill="#959595" d="M 598.5,519.5 C 598.293,522.241 597.293,524.574 595.5,526.5C 595.707,523.759 596.707,521.426 598.5,519.5 Z"/></g>
<g><path style="opacity:0.788" fill="#747474" d="M 397.5,523.5 C 398.906,523.973 399.573,524.973 399.5,526.5C 398.094,526.027 397.427,525.027 397.5,523.5 Z"/></g>
<g><path style="opacity:0.702" fill="#7f7f7f" d="M 403.5,531.5 C 404.906,531.973 405.573,532.973 405.5,534.5C 404.094,534.027 403.427,533.027 403.5,531.5 Z"/></g>
<g><path style="opacity:0.725" fill="#7c7c7c" d="M 617.5,533.5 C 617.573,535.027 616.906,536.027 615.5,536.5C 615.427,534.973 616.094,533.973 617.5,533.5 Z"/></g>
<g><path style="opacity:0.78" fill="#6b6b6b" d="M 615.5,536.5 C 615.573,538.027 614.906,539.027 613.5,539.5C 613.427,537.973 614.094,536.973 615.5,536.5 Z"/></g>
<g><path style="opacity:0.647" fill="#6e6e6e" d="M 613.5,539.5 C 613.573,541.027 612.906,542.027 611.5,542.5C 611.427,540.973 612.094,539.973 613.5,539.5 Z"/></g>
<g><path style="opacity:0.486" fill="#8f8f8f" d="M 410.5,541.5 C 411.906,541.973 412.573,542.973 412.5,544.5C 411.094,544.027 410.427,543.027 410.5,541.5 Z"/></g>
<g><path style="opacity:0.843" fill="#6d6d6d" d="M 20.5,541.5 C 20.7406,543.898 20.0739,545.898 18.5,547.5C 18.595,545.214 19.2616,543.214 20.5,541.5 Z"/></g>
<g><path style="opacity:0.416" fill="#9c9c9c" d="M 412.5,544.5 C 413.906,544.973 414.573,545.973 414.5,547.5C 413.094,547.027 412.427,546.027 412.5,544.5 Z"/></g>
<g><path style="opacity:0.545" fill="#929292" d="M 435.5,546.5 C 437.104,547.287 437.771,548.62 437.5,550.5C 436.326,549.486 435.66,548.153 435.5,546.5 Z"/></g>
<g><path style="opacity:0.471" fill="#939393" d="M 586.5,547.5 C 586.598,549.553 585.931,551.22 584.5,552.5C 584.402,550.447 585.069,548.78 586.5,547.5 Z"/></g>
<g><path style="opacity:0.506" fill="#8c8c8c" d="M 607.5,548.5 C 607.573,550.027 606.906,551.027 605.5,551.5C 605.427,549.973 606.094,548.973 607.5,548.5 Z"/></g>
<g><path style="opacity:0.537" fill="#818181" d="M 415.5,549.5 C 416.906,549.973 417.573,550.973 417.5,552.5C 416.094,552.027 415.427,551.027 415.5,549.5 Z"/></g>
<g><path style="opacity:0.486" fill="#919191" d="M 417.5,552.5 C 418.906,552.973 419.573,553.973 419.5,555.5C 418.094,555.027 417.427,554.027 417.5,552.5 Z"/></g>
<g><path style="opacity:0.576" fill="#7a7a7a" d="M 604.5,553.5 C 604.573,555.027 603.906,556.027 602.5,556.5C 602.427,554.973 603.094,553.973 604.5,553.5 Z"/></g>
<g><path style="opacity:0.576" fill="#878787" d="M 448.5,580.5 C 449.931,581.78 450.598,583.447 450.5,585.5C 449.069,584.22 448.402,582.553 448.5,580.5 Z"/></g>
<g><path style="opacity:0.275" fill="#a5a5a5" d="M 211.5,594.5 C 210.22,595.931 208.553,596.598 206.5,596.5C 207.78,595.069 209.447,594.402 211.5,594.5 Z"/></g>
<g><path style="opacity:0.322" fill="#aeaeae" d="M 813.5,595.5 C 815.38,595.229 816.713,595.896 817.5,597.5C 815.847,597.34 814.514,596.674 813.5,595.5 Z"/></g>
<g><path style="opacity:0.071" fill="#a8a8a8" d="M 206.5,596.5 C 205.486,597.674 204.153,598.34 202.5,598.5C 203.287,596.896 204.62,596.229 206.5,596.5 Z"/></g>
<g><path style="opacity:0.275" fill="#adadad" d="M 440.5,597.5 C 441.931,598.78 442.598,600.447 442.5,602.5C 441.069,601.22 440.402,599.553 440.5,597.5 Z"/></g>
<g><path style="opacity:0.22" fill="#b0b0b0" d="M 581.5,598.5 C 581.598,600.553 580.931,602.22 579.5,603.5C 579.402,601.447 580.069,599.78 581.5,598.5 Z"/></g>
<g><path style="opacity:0.647" fill="#848484" d="M 833.5,606.5 C 835.404,606.738 836.738,607.738 837.5,609.5C 835.596,609.262 834.262,608.262 833.5,606.5 Z"/></g>
<g><path style="opacity:0.353" fill="#a0a0a0" d="M 708.5,607.5 C 707.341,609.25 705.674,610.25 703.5,610.5C 704.659,608.75 706.326,607.75 708.5,607.5 Z"/></g>
<g><path style="opacity:0.439" fill="#969696" d="M 333.5,618.5 C 335.027,618.427 336.027,619.094 336.5,620.5C 334.973,620.573 333.973,619.906 333.5,618.5 Z"/></g>
<g><path style="opacity:0.514" fill="#8f8f8f" d="M 336.5,620.5 C 338.027,620.427 339.027,621.094 339.5,622.5C 337.973,622.573 336.973,621.906 336.5,620.5 Z"/></g>
<g><path style="opacity:0.016" fill="#b1b1b1" d="M 848.5,620.5 C 849.906,620.973 850.573,621.973 850.5,623.5C 849.094,623.027 848.427,622.027 848.5,620.5 Z"/></g>
<g><path style="opacity:0.584" fill="#818181" d="M 339.5,622.5 C 341.027,622.427 342.027,623.094 342.5,624.5C 340.973,624.573 339.973,623.906 339.5,622.5 Z"/></g>
<g><path style="opacity:0.718" fill="#8a8a8a" d="M 351.5,631.5 C 353.404,631.738 354.738,632.738 355.5,634.5C 353.596,634.262 352.262,633.262 351.5,631.5 Z"/></g>
<g><path style="opacity:0.796" fill="#7c7c7c" d="M 856.5,632.5 C 858.446,633.035 859.446,634.368 859.5,636.5C 858.026,635.564 857.026,634.23 856.5,632.5 Z"/></g>
<g><path style="opacity:0.686" fill="#8b8b8b" d="M 360.5,639.5 C 362.027,639.427 363.027,640.094 363.5,641.5C 361.973,641.573 360.973,640.906 360.5,639.5 Z"/></g>
<g><path style="opacity:0.843" fill="#727272" d="M 566.5,643.5 C 566.829,646.228 566.163,648.562 564.5,650.5C 564.721,647.933 565.388,645.599 566.5,643.5 Z"/></g>
<g><path style="opacity:0.016" fill="#b1b1b1" d="M 646.5,654.5 C 646.573,656.027 645.906,657.027 644.5,657.5C 644.427,655.973 645.094,654.973 646.5,654.5 Z"/></g>
<g><path style="opacity:0.773" fill="#828282" d="M 55.5,682.5 C 58.4274,683.757 60.7607,685.757 62.5,688.5C 59.5726,687.243 57.2393,685.243 55.5,682.5 Z"/></g>
<g><path style="opacity:0.471" fill="#959595" d="M 398.5,687.5 C 400.539,688.911 401.539,690.911 401.5,693.5C 399.992,691.819 398.992,689.819 398.5,687.5 Z"/></g>
<g><path style="opacity:0.424" fill="#9b9b9b" d="M 624.5,686.5 C 624.008,688.819 623.008,690.819 621.5,692.5C 621.461,689.911 622.461,687.911 624.5,686.5 Z"/></g>
<g><path style="opacity:0.639" fill="#787878" d="M 65.5,691.5 C 67.0269,691.427 68.0269,692.094 68.5,693.5C 66.9731,693.573 65.9731,692.906 65.5,691.5 Z"/></g>
<g><path style="opacity:0.78" fill="#797979" d="M 69.5,694.5 C 71.4044,694.738 72.7377,695.738 73.5,697.5C 71.5956,697.262 70.2623,696.262 69.5,694.5 Z"/></g>
<g><path style="opacity:0.757" fill="#6d6d6d" d="M 73.5,697.5 C 75.0269,697.427 76.0269,698.094 76.5,699.5C 74.9731,699.573 73.9731,698.906 73.5,697.5 Z"/></g>
<g><path style="opacity:0.416" fill="#9b9b9b" d="M 88.5,707.5 C 90.0269,707.427 91.0269,708.094 91.5,709.5C 89.9731,709.573 88.9731,708.906 88.5,707.5 Z"/></g>
<g><path style="opacity:0.104" fill="#d5d5d5" d="M 407.5,708.5 C 408.043,708.56 408.376,708.893 408.5,709.5C 399.19,710.498 389.857,710.832 380.5,710.5C 389.5,709.833 398.5,709.167 407.5,708.5 Z"/></g>
<g><path style="opacity:0.105" fill="#c6c6c6" d="M 476.5,707.5 C 477.404,708.209 477.737,709.209 477.5,710.5C 473.671,711.069 470.337,710.402 467.5,708.5C 470.927,710.177 473.927,709.844 476.5,707.5 Z"/></g>
<g><path style="opacity:0.11" fill="#c3c3c3" d="M 555.5,702.5 C 555.5,705.167 555.5,707.833 555.5,710.5C 552.5,710.5 549.5,710.5 546.5,710.5C 546.198,707.941 546.532,705.607 547.5,703.5C 547.5,705.5 547.5,707.5 547.5,709.5C 549.833,709.5 552.167,709.5 554.5,709.5C 554.198,706.941 554.532,704.607 555.5,702.5 Z"/></g>
<g><path style="opacity:0.055" fill="#b1b1b1" d="M 930.5,709.5 C 930.027,710.906 929.027,711.573 927.5,711.5C 927.973,710.094 928.973,709.427 930.5,709.5 Z"/></g>
<g><path style="opacity:0.4" fill="#969696" d="M 97.5,712.5 C 99.0269,712.427 100.027,713.094 100.5,714.5C 98.9731,714.573 97.9731,713.906 97.5,712.5 Z"/></g>
<g><path style="opacity:0.749" fill="#737373" d="M 362.5,715.5 C 362.027,716.906 361.027,717.573 359.5,717.5C 359.973,716.094 360.973,715.427 362.5,715.5 Z"/></g>
<g><path style="opacity:0.733" fill="#6d6d6d" d="M 359.5,717.5 C 359.027,718.906 358.027,719.573 356.5,719.5C 356.973,718.094 357.973,717.427 359.5,717.5 Z"/></g>
<g><path style="opacity:0.02" fill="#cccccc" d="M 314.5,720.5 C 315.978,720.238 317.311,720.571 318.5,721.5C 318.376,722.107 318.043,722.44 317.5,722.5C 316.5,721.833 315.5,721.167 314.5,720.5 Z"/></g>
<g><path style="opacity:0.322" fill="#ababab" d="M 708.5,720.5 C 707.1,721.1 706.1,722.1 705.5,723.5C 704.596,722.791 704.263,721.791 704.5,720.5C 705.833,720.5 707.167,720.5 708.5,720.5 Z"/></g>
<g><path style="opacity:0.267" fill="#ababab" d="M 115.5,721.5 C 117.553,721.402 119.22,722.069 120.5,723.5C 118.447,723.598 116.78,722.931 115.5,721.5 Z"/></g>
<g><path style="opacity:0.29" fill="#a6a6a6" d="M 904.5,722.5 C 903.22,723.931 901.553,724.598 899.5,724.5C 900.78,723.069 902.447,722.402 904.5,722.5 Z"/></g>
<g><path style="opacity:0.251" fill="#a5a5a5" d="M 120.5,723.5 C 122.553,723.402 124.22,724.069 125.5,725.5C 123.447,725.598 121.78,724.931 120.5,723.5 Z"/></g>
<g><path style="opacity:0.725" fill="#7a7a7a" d="M 672.5,723.5 C 673.906,723.973 674.573,724.973 674.5,726.5C 673.094,726.027 672.427,725.027 672.5,723.5 Z"/></g>
<g><path style="opacity:0.376" fill="#919191" d="M 896.5,725.5 C 895.22,726.931 893.553,727.598 891.5,727.5C 892.78,726.069 894.447,725.402 896.5,725.5 Z"/></g>
<g><path style="opacity:0.529" fill="#838383" d="M 674.5,726.5 C 675.906,726.973 676.573,727.973 676.5,729.5C 675.094,729.027 674.427,728.027 674.5,726.5 Z"/></g>
<g><path style="opacity:0.424" fill="#898989" d="M 349.5,727.5 C 349.34,729.153 348.674,730.486 347.5,731.5C 347.229,729.62 347.896,728.287 349.5,727.5 Z"/></g>
<g><path style="opacity:0.678" fill="#808080" d="M 252.5,730.5 C 252.027,731.906 251.027,732.573 249.5,732.5C 249.973,731.094 250.973,730.427 252.5,730.5 Z"/></g>
<g><path style="opacity:0.251" fill="#aaaaaa" d="M 773.5,732.5 C 775.027,732.427 776.027,733.094 776.5,734.5C 774.973,734.573 773.973,733.906 773.5,732.5 Z"/></g>
<g><path style="opacity:0.686" fill="#828282" d="M 247.5,733.5 C 247.027,734.906 246.027,735.573 244.5,735.5C 244.973,734.094 245.973,733.427 247.5,733.5 Z"/></g>
<g><path style="opacity:0.522" fill="#a6a6a6" d="M 159.5,733.5 C 160.267,734.172 160.934,735.005 161.5,736C 159.613,736.78 157.946,736.613 156.5,735.5C 158.179,735.715 159.179,735.048 159.5,733.5 Z"/></g>
<g><path style="opacity:0.384" fill="#ababab" d="M 862.5,734.5 C 863.209,735.404 864.209,735.737 865.5,735.5C 864.292,736.782 862.958,736.782 861.5,735.5C 861.624,734.893 861.957,734.56 862.5,734.5 Z"/></g>
<g><path style="opacity:0.725" fill="#818181" d="M 244.5,735.5 C 244.027,736.906 243.027,737.573 241.5,737.5C 241.973,736.094 242.973,735.427 244.5,735.5 Z"/></g>
<g><path style="opacity:0.663" fill="#949494" d="M 787.5,742.5 C 789.914,743.911 791.581,745.911 792.5,748.5C 790.086,747.089 788.419,745.089 787.5,742.5 Z"/></g>
<g><path style="opacity:0.616" fill="#7c7c7c" d="M 795.5,751.5 C 796.906,751.973 797.573,752.973 797.5,754.5C 796.094,754.027 795.427,753.027 795.5,751.5 Z"/></g>
<g><path style="opacity:0.561" fill="#7d7d7d" d="M 225.5,753.5 C 225.573,755.027 224.906,756.027 223.5,756.5C 223.427,754.973 224.094,753.973 225.5,753.5 Z"/></g>
<g><path style="opacity:0.765" fill="#7b7b7b" d="M 353.5,755.5 C 355.027,755.427 356.027,756.094 356.5,757.5C 354.973,757.573 353.973,756.906 353.5,755.5 Z"/></g>
<g><path style="opacity:0.478" fill="#959595" d="M 798.5,755.5 C 799.906,755.973 800.573,756.973 800.5,758.5C 799.094,758.027 798.427,757.027 798.5,755.5 Z"/></g>
<g><path style="opacity:0.553" fill="#828282" d="M 221.5,759.5 C 221.573,761.027 220.906,762.027 219.5,762.5C 219.427,760.973 220.094,759.973 221.5,759.5 Z"/></g>
<g><path style="opacity:0.314" fill="#9d9d9d" d="M 660.5,762.5 C 659.22,763.931 657.553,764.598 655.5,764.5C 656.78,763.069 658.447,762.402 660.5,762.5 Z"/></g>
<g><path style="opacity:0.345" fill="#a8a8a8" d="M 378.5,766.5 C 390.167,766.5 401.833,766.5 413.5,766.5C 413.768,768.099 413.434,769.432 412.5,770.5C 412.5,769.5 412.5,768.5 412.5,767.5C 400.988,767.828 389.654,767.495 378.5,766.5 Z"/></g>
<g><path style="opacity:0.343" fill="#acacac" d="M 544.5,767.5 C 547.625,766.521 550.958,766.187 554.5,766.5C 554.5,768.5 554.5,770.5 554.5,772.5C 553.549,771.081 553.216,769.415 553.5,767.5C 550.5,767.5 547.5,767.5 544.5,767.5 Z"/></g>
<g><path style="opacity:0.537" fill="#898989" d="M 620.5,797.5 C 621.906,797.973 622.573,798.973 622.5,800.5C 621.094,800.027 620.427,799.027 620.5,797.5 Z"/></g>
<g><path style="opacity:0.718" fill="#7e7e7e" d="M 622.5,800.5 C 623.906,800.973 624.573,801.973 624.5,803.5C 623.094,803.027 622.427,802.027 622.5,800.5 Z"/></g>
<g><path style="opacity:0.592" fill="#797979" d="M 716.5,800.5 C 716.573,802.027 715.906,803.027 714.5,803.5C 714.427,801.973 715.094,800.973 716.5,800.5 Z"/></g>
<g><path style="opacity:0.773" fill="#727272" d="M 398.5,802.5 C 398.573,804.027 397.906,805.027 396.5,805.5C 396.427,803.973 397.094,802.973 398.5,802.5 Z"/></g>
<g><path style="opacity:0.718" fill="#868686" d="M 713.5,804.5 C 713.573,806.027 712.906,807.027 711.5,807.5C 711.427,805.973 712.094,804.973 713.5,804.5 Z"/></g>
<g><path style="opacity:0.773" fill="#868686" d="M 626.5,805.5 C 628.5,806.833 630.167,808.5 631.5,810.5C 628.833,809.833 627.167,808.167 626.5,805.5 Z"/></g>
<g><path style="opacity:0.765" fill="#838383" d="M 310.5,806.5 C 312.5,807.833 314.167,809.5 315.5,811.5C 312.833,810.833 311.167,809.167 310.5,806.5 Z"/></g>
<g><path style="opacity:0.647" fill="#7e7e7e" d="M 391.5,810.5 C 390.738,812.262 389.404,813.262 387.5,813.5C 388.262,811.738 389.596,810.738 391.5,810.5 Z"/></g>
<g><path style="opacity:0.655" fill="#8a8a8a" d="M 707.5,811.5 C 707.027,812.906 706.027,813.573 704.5,813.5C 704.973,812.094 705.973,811.427 707.5,811.5 Z"/></g>
<g><path style="opacity:0.008" fill="#a6a6a6" d="M 562.5,816.5 C 563.924,818.515 564.59,820.848 564.5,823.5C 563.076,821.485 562.41,819.152 562.5,816.5 Z"/></g>
<g><path style="opacity:1" fill="#5e5e5e" d="M 376.5,819.5 C 374.081,821.862 371.081,822.862 367.5,822.5C 370.254,821.054 373.254,820.054 376.5,819.5 Z"/></g>
<g><path style="opacity:0.431" fill="#9e9e9e" d="M 565.5,826.5 C 566.931,827.78 567.598,829.447 567.5,831.5C 566.069,830.22 565.402,828.553 565.5,826.5 Z"/></g>
<g><path style="opacity:0.851" fill="#6f6f6f" d="M 475.5,835.5 C 475.843,837.483 475.176,838.817 473.5,839.5C 473.989,838.005 474.655,836.671 475.5,835.5 Z"/></g>
<g><path style="opacity:0.788" fill="#6c6c6c" d="M 473.5,839.5 C 473.027,840.906 472.027,841.573 470.5,841.5C 470.973,840.094 471.973,839.427 473.5,839.5 Z"/></g>
<g><path style="opacity:0.718" fill="#838383" d="M 560.5,846.5 C 561.906,846.973 562.573,847.973 562.5,849.5C 561.094,849.027 560.427,848.027 560.5,846.5 Z"/></g>
<g><path style="opacity:0.016" fill="#b2b2b2" d="M 580.5,856.5 C 581.906,856.973 582.573,857.973 582.5,859.5C 581.094,859.027 580.427,858.027 580.5,856.5 Z"/></g>
<g><path style="opacity:0.584" fill="#9c9c9c" d="M 593.5,873.5 C 595.749,874.08 597.415,875.413 598.5,877.5C 596.251,876.92 594.585,875.587 593.5,873.5 Z"/></g>
<g><path style="opacity:0.773" fill="#747474" d="M 603.5,882.5 C 605.027,882.427 606.027,883.094 606.5,884.5C 604.973,884.573 603.973,883.906 603.5,882.5 Z"/></g>
<g><path style="opacity:0.506" fill="#919191" d="M 241.5,885.5 C 243.027,885.427 244.027,886.094 244.5,887.5C 242.973,887.573 241.973,886.906 241.5,885.5 Z"/></g>
<g><path style="opacity:0.486" fill="#949494" d="M 608.5,886.5 C 610.027,886.427 611.027,887.094 611.5,888.5C 609.973,888.573 608.973,887.906 608.5,886.5 Z"/></g>
<g><path style="opacity:0.608" fill="#7d7d7d" d="M 611.5,888.5 C 613.027,888.427 614.027,889.094 614.5,890.5C 612.973,890.573 611.973,889.906 611.5,888.5 Z"/></g>
<g><path style="opacity:0.639" fill="#767676" d="M 614.5,890.5 C 616.027,890.427 617.027,891.094 617.5,892.5C 615.973,892.573 614.973,891.906 614.5,890.5 Z"/></g>
<g><path style="opacity:0.631" fill="#747474" d="M 250.5,891.5 C 252.027,891.427 253.027,892.094 253.5,893.5C 251.973,893.573 250.973,892.906 250.5,891.5 Z"/></g>
<g><path style="opacity:0.514" fill="#898989" d="M 617.5,892.5 C 619.027,892.427 620.027,893.094 620.5,894.5C 618.973,894.573 617.973,893.906 617.5,892.5 Z"/></g>
<g><path style="opacity:0.212" fill="#b1b1b1" d="M 266.5,900.5 C 268.553,900.402 270.22,901.069 271.5,902.5C 269.447,902.598 267.78,901.931 266.5,900.5 Z"/></g>
<g><path style="opacity:0.227" fill="#acacac" d="M 388.5,901.5 C 387.22,902.931 385.553,903.598 383.5,903.5C 384.78,902.069 386.447,901.402 388.5,901.5 Z"/></g>
<g><path style="opacity:0.267" fill="#aaaaaa" d="M 753.5,901.5 C 752.22,902.931 750.553,903.598 748.5,903.5C 749.78,902.069 751.447,901.402 753.5,901.5 Z"/></g>
<g><path style="opacity:0.749" fill="#818181" d="M 276.5,904.5 C 278.898,904.259 280.898,904.926 282.5,906.5C 280.214,906.405 278.214,905.738 276.5,904.5 Z"/></g>
<g><path style="opacity:0.376" fill="#9a9a9a" d="M 591.5,916.5 C 592.906,916.973 593.573,917.973 593.5,919.5C 592.094,919.027 591.427,918.027 591.5,916.5 Z"/></g>
<g><path style="opacity:0.584" fill="#828282" d="M 428.5,921.5 C 428.573,923.027 427.906,924.027 426.5,924.5C 426.427,922.973 427.094,921.973 428.5,921.5 Z"/></g>
<g><path style="opacity:0.584" fill="#7d7d7d" d="M 594.5,921.5 C 595.906,921.973 596.573,922.973 596.5,924.5C 595.094,924.027 594.427,923.027 594.5,921.5 Z"/></g>
<g><path style="opacity:0.757" fill="#787878" d="M 597.5,925.5 C 598.906,925.973 599.573,926.973 599.5,928.5C 598.094,928.027 597.427,927.027 597.5,925.5 Z"/></g>
<g><path style="opacity:0.812" fill="#4d4d4d" d="M 557.5,927.5 C 555.917,929.508 554.917,931.841 554.5,934.5C 554.5,931.833 554.5,929.167 554.5,926.5C 555.791,926.263 556.791,926.596 557.5,927.5 Z"/></g>
<g><path style="opacity:0.741" fill="#7b7b7b" d="M 422.5,928.5 C 422.5,930.5 421.5,931.5 419.5,931.5C 420.167,930.167 421.167,929.167 422.5,928.5 Z"/></g>
<g><path style="opacity:0.494" fill="#8b8b8b" d="M 560.5,930.5 C 562.027,930.427 563.027,931.094 563.5,932.5C 561.973,932.573 560.973,931.906 560.5,930.5 Z"/></g>
<g><path style="opacity:0.796" fill="#5a5a5a" d="M 419.5,931.5 C 418.833,934.167 417.167,935.833 414.5,936.5C 415.833,934.5 417.5,932.833 419.5,931.5 Z"/></g>
<g><path style="opacity:0.639" fill="#808080" d="M 414.5,936.5 C 413.738,938.262 412.404,939.262 410.5,939.5C 411.262,937.738 412.596,936.738 414.5,936.5 Z"/></g>
<g><path style="opacity:0.384" fill="#9a9a9a" d="M 547.5,953.5 C 546.873,957.42 545.207,960.753 542.5,963.5C 543.659,959.849 545.326,956.515 547.5,953.5 Z"/></g>
<g><path style="opacity:0.796" fill="#7d7d7d" d="M 486.5,976.5 C 488.446,977.035 489.446,978.368 489.5,980.5C 488.026,979.564 487.026,978.23 486.5,976.5 Z"/></g>
<g><path style="opacity:0.204" fill="#b2b2b2" d="M 531.5,983.5 C 531.573,985.027 530.906,986.027 529.5,986.5C 529.427,984.973 530.094,983.973 531.5,983.5 Z"/></g>
<g><path style="opacity:0.024" fill="#cacaca" d="M 513.5,1017.5 C 513.289,1019.42 512.623,1019.76 511.5,1018.5C 512.167,1018.17 512.833,1017.83 513.5,1017.5 Z"/></g>
</svg>
